<?xml version="1.0" encoding="UTF-8" standalone="no"?>
<!DOCTYPE svg PUBLIC "-//W3C//DTD SVG 1.1//EN" "http://www.w3.org/Graphics/SVG/1.1/DTD/svg11.dtd">
<svg width="100%" height="100%" viewBox="0 0 288 607" version="1.1" xmlns="http://www.w3.org/2000/svg" xmlns:xlink="http://www.w3.org/1999/xlink" xml:space="preserve" xmlns:serif="http://www.serif.com/" style="fill-rule:evenodd;clip-rule:evenodd;stroke-linecap:square;">
    <g id="map" transform="matrix(1,0,0,1,-128.169,-155.754)">
        <g id="counties">
            <g id="AB" transform="matrix(1,0,0,1,-2.05353,4.4018)">
                <g id="polygon89" transform="matrix(1,0,0,1,-25.947,35.4107)">
                    <path d="M318.375,549.188L318.25,548.625L318.25,548.188L317.5,548.75L317.375,549L317.563,549.75L317.5,550.25L316.875,550.5L316.563,550.438L316.5,549.813L316.5,549.25L316.75,548.5L316.5,547.375L316.375,547.125L316.25,546.688L316.063,546.375L315.938,546.188L315.75,546.438L315.813,546.75L316.188,547.375L316.313,548.063L316.313,548.438L316.125,548.625L315.938,548.688L315.75,548.625L315.625,548.875L315.75,549.063L315.188,549.5L315,549.625L315,550L315.313,550.25L315.375,550.438L315,551.125L315.063,552.75L315.188,553.313L315.438,553.125L315.75,552.375L315.813,551.875L315.875,551.125L316.188,550.875L316.5,551.125L316.563,551.625L316.688,553.625L316.813,554.875L316.625,555.625L316.438,555.875L316,555.625L315.563,555.563L315.25,557.125L314.813,555.375L313.188,554.625L313.063,553.625L309.75,553.688L308.125,551.375L308.375,547.625L307.25,545.625L306.938,543.563L307.813,542.438L308.25,543.125L308.813,542.875L309.438,542.875L309.938,543.125L310.625,543.438L310.563,543.125L309.813,542L309.75,541.688L309.75,540.625L309.563,540.375L309.5,540.063L309.875,539.938L310,540.25L310.188,540.313L310.75,540.688L311,540.688L311.625,541.375L313.25,542.313L313.75,542.313L314,542.625L314.25,543.438L314.625,544.313L314.813,544.625L315.125,544.75L315.188,544.438L314.875,543.688L314.75,542.75L314.688,542.563L314.5,542.375L314.375,542.125L314.5,541.75L314.938,541.563L315.125,541.75L315.563,541.688L315.563,541.438L316.188,541.563L316.688,541.875L316.875,542.313L317.313,542.688L317.75,542.375L318.25,542.5L318.75,542.438L319.5,542.375L319.875,542.625L320.063,543.063L320.188,543.375L320.375,543.063L320.313,541.938L320.188,541.688L320.313,541.25L320.75,541L321.125,540.688L321.5,540.5L321.938,540.313L322.438,540.25L322.625,540.063L323.063,540L323.563,539.813L324.063,539.75L324.375,539.563L324.125,539.375L324.625,539.313L325,539.688L325.313,539.75L325.625,539.563L325.563,539.313L325.313,538.875L324.75,538.438L323.938,537.5L324.5,536.875L324.625,536.375L324.625,535.813L324.688,535.563L325,535.25L324.875,535.125L325.5,534.563L325.75,534.438L325.875,534.875L325.938,535.063L326.188,535.063L326.688,534.75L326.813,534.875L326.813,535.563L326.688,535.625L326.25,535.5L326.125,535.75L326.063,536.25L326.063,536.625L326.5,536.813L326.813,536.813L327.125,537L328.313,536.875L328.75,536.75L328.938,536.5L328.75,536.313L328.313,536.375L328.25,536.188L328.5,536.063L328.563,535.875L328.25,535.5L328.063,535.25L327.438,535.25L327.375,535.063L327.5,534.813L327.813,534.813L328.188,534.938L328.625,534.813L328.813,534.625L328.938,534.313L328.813,534.063L328.563,534L328.313,533.875L328.5,533.625L328.75,533.625L328.938,533.813L329.125,533.938L329.375,533.813L329.625,533.813L329.75,534.063L330.125,534L330.375,534.063L330.688,534L331.063,533.313L331.063,533.063L331.188,532.875L331.563,532.813L331.938,532.5L332.188,532L332.375,531.875L333.188,530.938L333.563,530.875L333.75,530.625L334.375,530.125L335,529.688L335.5,529.438L336.25,528.875L337.313,527L337.563,524.813L339.938,523.438L343.188,523.688L344.375,522.875L344.188,521.063L342.125,520.438L342,518.625L343.5,518.688L344.25,516.438L342.938,515.375L340.938,513.938L339.438,511.313L338.438,507.688L337.625,507.125L337.875,504.438L336.188,502.875L336,504.938L335.438,506.25L334.063,505.875L332,505.438L331.625,507.438L331.188,509.438L329.563,510L330.875,511.625L330.063,512L329.688,517.188L328.188,518.75L324.938,519.625L324,522.875L323.563,522.875L323.125,523L322.938,522.875L322.375,523.313L321.938,523.313L321.25,523.938L320.938,524.125L320.5,524.188L318.875,524.813L319,525.125L318.625,525.313L318.375,525.125L317.938,525.125L317.438,525.375L317.188,526L316.813,525.938L316.688,525.438L316.188,525.313L315.875,524.938L315.313,524.938L314.688,524.813L314.813,525.625L314.25,525.875L313.625,526.438L313.813,526.688L313.5,527.188L313.25,527.25L312.875,527.563L312.625,528.25L312.688,528.938L313.5,529.75L313.438,530.313L313.438,530.563L313.563,530.813L313.313,531.5L313,531.688L312.75,532L312.625,532.25L312.75,532.5L313.5,533.375L313.688,533.313L313.563,533L313.688,532.75L313.938,532.75L314.125,532.938L314.125,533.75L314.25,534.063L314.563,534.063L314.688,533.813L314.5,533.563L314.438,533.313L314.75,532.938L315.125,533L315.625,533.313L316,533.563L316.063,533.938L316.25,534.188L316.313,534.875L316.688,535L316.938,535.063L316.938,535.313L317.188,535.375L317.438,535L317.375,534.188L317.5,533.5L317.813,533.438L318,534.063L318.313,533.813L318.5,534.063L318.438,534.313L318.375,534.375L318.313,534.563L317.938,535.813L317.875,536.375L318,536.688L318.188,536.938L318.438,537.25L319.125,538L319.688,538.563L320.5,539L320.688,539.375L320.875,539.563L321.313,539.625L321.625,540L321.938,540L322.188,539.875L322.375,539.438L322.375,539L322.438,538.813L322.563,538.875L322.938,539.313L323.313,539.5L323.688,539.5L324.125,539.375L324.063,539.75L324.375,539.875L324.875,540L325.25,540L325.75,539.875L326.438,539.563L326.875,539.313L327,539.313L327,539.813L327.063,540.5L327.25,540.688L328.063,540.688L328.438,540.625L328.75,540.75L328.938,541.125L329.063,541.438L329.563,541.5L329.875,541.625L329.938,541.875L329.75,542L329.313,541.938L328.563,541.75L328.188,541.75L328.125,541.875L328.188,542L328.375,542.188L328.875,542.25L330,543L330.313,543.438L330.625,543.563L331,543.625L331.375,544.313L331.188,544.563L330.75,544.875L330.563,545.313L330.875,545.625L331.563,545.875L331.875,545.75L332.188,545.625L332.375,545.75L331.938,546.813L331.625,547L331.375,547.125L331.188,547.125L331.063,546.938L330.875,546.938L330.375,547.438L330.188,547.5L329.875,547.438L329.625,547.563L329,547.875L328.688,548.438L329.625,548.375L329.688,548.625L329.375,549L328.375,549.313L327.875,549.625L327.563,549.938L327.313,550.063L327.25,549.875L327.25,549.625L327.563,549.313L327.813,549.125L327.813,549L327.688,548.813L327.813,548.563L328.063,548.438L328.25,548.375L328.438,548.188L328.438,548L328.188,547.813L327.75,547.875L327.438,548.063L327.313,548.375L327.438,548.563L327.375,548.813L327,549.063L326.063,549.5L325.938,549.688L325.375,549.875L325.188,550.125L325.063,550.5L324.813,550.625L324.313,550.688L324,550.813L323.875,551.188L323.813,551.563L323.688,551.75L323.438,551.688L323.375,551.313L323.125,551.25L323.063,551.5L323.25,552.5L323.313,552.875L323.188,553.063L323.063,553.063L322.938,552.688L322.813,552.5L322.688,552.938L322.625,553.313L322.25,554.313L322.5,555.625L322.25,556.563L321.813,556.938L321.313,557.438L321.063,558.438L320.688,558.813L320.188,560.813L318.875,561.25L318.875,560.813L319.25,560.313L319.5,559.875L319.563,559.25L319.125,558.125L318.563,557.188L318.063,556.688L317.938,556.25L318.063,556L318.063,554.5L317.813,554.125L317.875,553.813L318.063,553.375L317.813,552.188L317.563,551.5L317.563,551.125L317.813,550.625L318.063,550.25L317.938,549.813L318.063,549.313L318.375,549.188Z" style="fill:rgb(255,153,153);stroke:black;stroke-width:0.4px;"/>
                </g>
                <g id="polygon91" transform="matrix(1,0,0,1,-25.947,35.4107)">
                    <path d="M330.188,538.063L330.938,538L331.375,538.125L332.063,538.75L332.063,539.063L331.75,539.25L331.938,539.375L331.875,539.563L331.5,540.125L331.375,540.5L331.563,540.75L332.188,540.625L332.75,540.75L333.25,541.063L333.438,541.313L334.063,541.625L334.25,541.625L334.375,541.438L334.063,541.188L334.063,541L335.563,540.75L337,540.313L337.125,540.5L336.125,541.75L336.188,542L335.813,542.063L335.438,542.188L335.25,542.438L334.688,542.625L334.688,543.063L334.375,543.25L334.063,543.5L333.875,543.688L332.938,543.438L332.688,542.875L332.25,542.75L331.688,542.438L331.5,541.875L331.125,541.688L330.688,541.063L330,541.063L329.75,540.875L329.875,540.688L330.063,540.5L329.938,539.938L330,539.75L330.313,539.5L330.5,539.25L330.25,539.125L329.875,539.188L329.625,539.063L329.063,539L329,539.625L328.875,539.938L328.625,540.188L328.188,540.438L327.688,540.375L327.438,540.25L327.375,540.063L327.375,539.75L327.438,538.813L327.938,538.5L328.125,538.375L328.188,538.063L329.063,538L329.438,538.063L329.875,538L330.188,538.063Z" style="fill:rgb(255,153,153);stroke:black;stroke-width:0.3px;"/>
                </g>
                <g id="polygon93" transform="matrix(1,0,0,1,-25.947,35.4107)">
                    <path d="M332.25,536.438L332.375,536.75L332.375,537.125L332.25,537.5L332.188,537.813L332.25,538L332.375,538.188L332.5,538.375L332.5,538.75L332.313,539.813L332.313,540.125L332.563,540.313L332.875,540.313L333.625,540.75L334,540.625L335.063,540.438L335.563,540.313L335.813,540L336,539.5L336,539.188L335.813,538.75L335.313,538.5L334.75,538.313L334.25,538.438L334.125,538.125L334.563,538.063L335,538L335.25,538.063L335.438,538L335.688,537.813L335.688,537.563L335.5,537.313L335.25,537.313L334.875,537.563L333.438,536.688L333.125,535.688L333,535.563L332.563,535.5L332.313,535.5L332.063,535.625L331.875,535.563L331.688,535.625L331.75,535.875L331.875,536.063L332.125,536.188L332.25,536.438Z" style="fill:rgb(255,153,153);stroke:black;stroke-width:0.3px;"/>
                </g>
                <g id="polygon95" transform="matrix(1,0,0,1,-25.947,35.4107)">
                    <path d="M318.25,539.813L318.375,540.125L318.188,540.438L317.75,540.625L317.188,540.438L316.875,540L316.75,539.813L316.375,539.813L316,539.188L315.438,538.313L315.063,537.438L314.938,536.75L314.375,535.625L314.25,535.188L314.188,535L314.25,534.875L314.5,534.688L314.813,535.063L315.125,535.25L315.563,535.75L315.938,535.938L316.125,535.813L316.563,536L317,536.438L316.875,536.5L316.688,536.5L316.438,536.625L316.438,536.875L316.688,537.438L316.875,537.5L317.063,537.375L317,537.125L317.125,537L317.688,537.625L317.75,537.813L318,538.188L318.125,538.75L318.063,539.313L318.063,539.625L318.25,539.813Z" style="fill:rgb(255,153,153);stroke:black;stroke-width:0.3px;"/>
                </g>
                <g id="polygon97" transform="matrix(1,0,0,1,-25.947,35.4107)">
                    <path d="M314.625,538.375L314.688,538.688L314.563,539L314.875,539.125L314.938,539.688L314.875,539.938L314.938,540.313L315.063,540.5L315.375,540.688L316.188,541.125L317.063,541.75L317.875,541.75L318.125,541.813L318.313,541.938L318.875,542.125L319.438,541.875L319.5,541.75L319.438,541.438L318.75,541.125L318.813,541L318.563,540.938L318,541.125L317.75,541.063L317.25,540.875L316.5,540.438L316.063,540.063L315.5,540L315.063,538.438L314.125,535.688L313.875,535.688L313.5,535.813L313.188,535.938L312.875,536.25L312.938,536.688L313.063,537.063L313.125,537.313L313.375,537.438L313.563,537.438L313.75,537.375L314.063,538.25L314.313,538.438L314.625,538.375Z" style="fill:rgb(255,153,153);stroke:black;stroke-width:0.2px;"/>
                </g>
                <g id="polygon99" transform="matrix(1,0,0,1,-25.947,35.4107)">
                    <path d="M334.625,533.938L334.875,533.938L335,533.75L335,533.188L334.813,532.688L334.938,532.375L335.125,532.25L335.375,532.25L335.75,532.063L335.938,531.688L336.25,531.125L336.438,530.813L336.75,530.75L336.75,530.563L336.5,530.438L336.438,530L336.188,530L336.125,529.875L336.375,529.625L336.125,529.5L335.813,529.75L335.563,529.938L334.688,530.5L334.625,530.875L334.25,531.188L334.125,531.375L334.188,531.625L333.938,531.875L334,532L334.313,532L334.438,532.125L334.375,532.438L334.125,532.75L333.875,532.625L333.813,532.375L333.563,532.313L333.313,532.438L333.188,532.813L333.375,532.938L333.438,533.125L333.438,533.5L333.5,533.813L333.75,534.063L333.938,534.313L333.875,534.813L333.938,535.063L334.25,535L334.5,534.625L334.5,534.125L334.625,533.938Z" style="fill:rgb(255,153,153);stroke:black;stroke-width:0.3px;"/>
                </g>
                <g id="polygon101" transform="matrix(1,0,0,1,-25.947,35.4107)">
                    <path d="M331.688,552.25L331.938,551.938L332.063,550.438L332.625,549.875L332.625,549.375L333.125,548.875L333.25,548.5L332.813,547.688L332.813,547.75L331.688,549L330.875,549.375L330.75,549.563L330.938,549.625L330.938,549.75L330.375,550.563L330.438,550.75L330.75,550.688L330.813,550.813L330.688,550.938L330.5,551.125L330.313,551.375L330.438,551.875L330.813,552.125L331.313,551.938L331.438,552.25L331.688,552.25Z" style="fill:rgb(255,153,153);stroke:black;stroke-width:0.3px;"/>
                </g>
                <g id="polygon103" transform="matrix(1,0,0,1,-25.947,35.4107)">
                    <path d="M342.438,526L341.25,525.438L340,526.188L339.063,527.875L338,528.813L338.438,529.125L340.125,527.813L341.125,527.938L341.25,526.938L342.438,526.813L342.438,526Z" style="fill:rgb(255,153,153);stroke:black;stroke-width:0.3px;"/>
                </g>
                <g id="polygon105" transform="matrix(1,0,0,1,-25.947,35.4107)">
                    <path d="M327.938,556.313L328.188,556.188L328.375,555.938L328.625,555.813L329.063,555.875L329.75,555.5L329.5,555.25L329.188,555.063L329.375,554.75L330.438,554.125L330.625,553.875L330.625,553.438L330.5,553.313L330.25,553.5L330,553.813L329.313,554.25L328.938,554.125L327.688,554.938L327.438,555.125L326.875,555.563L326.375,556L326.375,556.375L326.563,556.313L326.875,556.125L327.25,555.75L327.375,555.938L327.375,556.25L327.938,556.313Z" style="fill:rgb(255,153,153);stroke:black;stroke-width:0.3px;"/>
                </g>
                <g id="polygon107" transform="matrix(1,0,0,1,-25.947,35.4107)">
                    <path d="M324.75,554.125L324.938,553.938L325.125,553.563L325.313,553.438L325.5,553.563L325.563,553.875L325.75,554.063L326.125,554L326.375,553.75L326.125,553.25L326.063,552.938L326.25,552.75L326.5,552.875L326.625,552.688L326.563,552.375L326.75,552L327.063,552L327.375,551.813L327.438,551.625L327.188,551.625L326.5,551.438L325.938,551.75L325.25,551.75L325.063,551.875L324.875,552.125L324.875,552.25L324.938,552.563L324.875,552.813L324.438,553.25L324.375,553.438L324.438,553.875L324.313,554.188L324.438,554.25L324.75,554.125Z" style="fill:rgb(255,153,153);stroke:black;stroke-width:0.3px;"/>
                </g>
                <g id="polygon109" transform="matrix(1,0,0,1,-25.947,35.4107)">
                    <path d="M337.688,537.563L337.938,537.938L338,538.438L338,539L337.875,539.375L337.563,539.625L337,540L336.813,540.063L336.625,540L336.75,539.25L336.75,538.813L336.563,538.25L335.938,537.313L336.625,537L336.938,537.375L337.188,537.188L337.688,537.563Z" style="fill:rgb(255,153,153);stroke:black;stroke-width:0.3px;"/>
                </g>
                <g id="polygon111" transform="matrix(1,0,0,1,-25.947,35.4107)">
                    <path d="M312,537.875L312.188,538.188L312.125,538.563L312.313,539L312.688,539.313L312.938,539.375L313.063,539.125L313,538.625L313.063,538.375L313.188,538.125L313.125,537.813L312.938,537.625L312.625,536.75L312.375,536.5L312.313,536.188L312,536.125L311.563,536.313L311.563,537.5L312,537.875Z" style="fill:rgb(255,153,153);stroke:black;stroke-width:0.3px;"/>
                </g>
                <g id="polygon113" transform="matrix(1,0,0,1,-25.947,35.4107)">
                    <path d="M324.875,537L325,536.875L325.313,536.938L325.75,537.125L326.313,537.375L326.938,537.5L327.125,537.5L327.438,537.438L327.75,537.5L327.75,537.75L327.625,537.813L327.313,537.813L327.188,537.938L327.25,538.063L327.375,538.25L327.25,538.438L327,538.625L326.625,538.813L326.188,538.813L325.688,538.688L325.375,538.188L325.313,537.938L325.313,537.625L325.125,537.438L324.875,537.375L324.813,537.188L324.875,537Z" style="fill:rgb(255,153,153);stroke:black;stroke-width:0.3px;"/>
                </g>
                <g id="polygon115" transform="matrix(1,0,0,1,-25.947,35.4107)">
                    <path d="M320.438,539.438L320.438,539.688L320.313,539.813L320.25,540L320.188,540.375L319.875,540.688L319.563,540.625L319.25,540.188L318.688,539.5L318.688,539.25L318.813,538.875L318.938,538.688L319.375,538.625L319.688,538.75L320,539.313L320.188,539.438L320.438,539.438Z" style="fill:rgb(255,153,153);stroke:black;stroke-width:0.2px;"/>
                </g>
                <g id="polygon117" transform="matrix(1,0,0,1,-25.947,35.4107)">
                    <path d="M340.375,535.688L340.375,535.375L340.313,535.063L340.313,534.75L340.438,534.5L340.75,534.188L341.125,534L341.375,533.938L341.688,534L341.75,534.188L341.813,534.5L341.625,534.688L341.375,534.75L341.375,535.188L341.063,535.563L340.75,535.813L340.625,536L340.563,536.188L340.25,536.438L340.063,536.375L340.125,536.063L340.375,535.688Z" style="fill:rgb(255,153,153);stroke:black;stroke-width:0.2px;"/>
                </g>
                <g id="polygon119" transform="matrix(1,0,0,1,-25.947,35.4107)">
                    <path d="M338.188,540.625L338.75,540.188L339.063,540.125L339.5,540.5L339.063,541L338.938,541.563L338.625,541.75L338.313,541.625L338,541.75L337.75,541.75L337.75,541.375L337.938,540.875L338.188,540.625Z" style="fill:rgb(255,153,153);stroke:black;stroke-width:0.2px;"/>
                </g>
                <g id="polygon121" transform="matrix(1,0,0,1,-25.947,35.4107)">
                    <path d="M342.125,536.125L342.25,536.813L342.125,537.063L341.75,537L341.625,536.813L341.625,536.063L341.5,535.813L341.813,535.625L341.875,535.313L342.063,535.125L342.438,535.188L342.5,535.5L342.125,536.125Z" style="fill:rgb(255,153,153);stroke:black;stroke-width:0.2px;"/>
                </g>
                <g id="polygon123" transform="matrix(1,0,0,1,-25.947,35.4107)">
                    <path d="M337.063,544.063L337.188,543.75L337.438,543.5L337.625,543.625L337.563,544.063L338.063,543.813L338.375,543.875L338.25,544.25L338,544.375L337.625,544.5L337.25,544.688L336.875,544.875L336.563,545.188L336.625,544.875L337.063,544.063Z" style="fill:rgb(255,153,153);stroke:black;stroke-width:0.2px;"/>
                </g>
                <g id="polygon125" transform="matrix(1,0,0,1,-25.947,35.4107)">
                    <path d="M341.563,537.688L341.625,537.938L341.375,538.125L341.375,538.375L341.125,538.875L341.188,539.125L341.438,539.438L341.25,539.625L340.563,539.563L340.688,539.313L340.75,538.813L340.813,538.25L340.938,537.938L341.188,537.625L341.375,537.625L341.563,537.688Z" style="fill:rgb(255,153,153);stroke:black;stroke-width:0.2px;"/>
                </g>
                <g id="polygon127" transform="matrix(1,0,0,1,-25.947,35.4107)">
                    <path d="M329.063,535.063L328.938,535.5L329.188,535.688L329.625,535.25L330.063,535.125L330.063,534.938L329.75,534.813L329.5,534.563L329.313,534.625L329.125,534.813L329.063,535.063Z" style="fill:rgb(255,153,153);stroke:black;stroke-width:0.2px;"/>
                </g>
            </g>
            <path id="C" d="M279.875,525.625L279.063,533.063L277.125,534.875L277.188,539.75L275.219,541.438L271.25,540.781L270.438,541.781L270.813,542.656L269.125,544.313L267.563,544.375L267.906,547.719L267.063,548.063L267.688,550.875L267.063,552.125L269.125,553.781L269.344,555.719L268.906,556.656L270.063,558.25L270,558.25L269.375,559.938L268.25,561.5L269.313,563.5L270.875,565.813L271.688,570.188L273.125,571.625L274.563,570.75L275.813,570.375L278.188,571.5L280.813,573.688L282.563,573.75L282.5,571.625L281,568.563L281.188,568.188L281.875,567.875L282,568.5L282.25,569.063L282.813,569.938L283.5,570.813L284.25,571.313L284.625,571.25L284.875,570.813L285.125,570.188L285.438,570.125L285.5,569.563L284.688,568.75L284.625,568.063L284.875,567.375L285.25,567.063L285.5,567L285.813,566.5L285.625,566.25L286.25,565.688L286.813,565.438L286.688,564.625L287.313,564.75L287.875,564.75L288.188,565.125L288.688,565.25L288.813,565.75L289.188,565.813L289.438,565.188L289.938,564.938L290.375,564.938L290.625,565.125L291,564.938L290.875,564.625L292.5,564L292.938,563.938L293.25,563.75L293.938,563.125L294.375,563.125L294.938,562.688L295.125,562.813L295.563,562.688L296,562.688L296.938,559.438L300.188,558.563L301.688,557L302.063,551.813L302.875,551.438L301.563,549.813L303.188,549.25L303.625,547.25L304,545.25L303.875,543L305.125,543L305.688,541.875L304.875,540.313L303.188,538.938L304.875,538.75L305.125,537.438L303.688,536.938L302.188,534.563L301.375,531L300.688,531.375L300.625,533.125L301.5,536.625L300.813,537.5L298.813,537L295.25,533.938L293.063,531.063L292.813,528.438L291.125,527.375L288.813,528.438L287.688,530.375L286.125,530.688L285,527.813L285.063,525.625L279.875,525.625Z" style="fill:rgb(255,51,51);stroke:black;stroke-width:0.4px;"/>
            <g id="D" transform="matrix(1,0,0,1,-28.0005,39.8125)">
                <path d="M280.125,555.188L282.125,556.125L283.063,557.938L284.5,559.563L285.813,559.875L286.375,560.75L288.875,565.563L292.625,565.688L295.688,566.75L297,568.625L298.5,568.813L300.25,569L302.563,568.188L302.5,567.313L300.75,566.813L301.688,566.313L302.938,566.438L304.188,567.313L305.125,565.875L304.063,564.875L302.563,563.5L303.938,562.938L305,564L306.063,564L308.25,564.5L309.125,563.438L310.5,563.75L310.813,561.875L311.375,562L311.75,562.125L312.875,562L312.313,561.313L312.625,558.75L314,559.875L314.688,559.375L314.188,558.25L315.25,557.125L314.813,555.375L313.188,554.625L313.063,553.625L309.75,553.688L308.125,551.375L308.375,547.625L307.25,545.625L306.938,543.563L307.813,542.438L307.25,541L308.375,540.125L308.125,538.875L307.5,538.688L308.563,537.375L307.625,535.313L304.813,534.625L304.25,535.5L305,538L303.438,538.125L302.625,535.5L303.25,534L302,533.125L301.063,533.625L300.75,535.063L298.375,533.938L297.25,534.5L295.563,534.625L293.563,535.25L291.688,534.938L289.625,535.313L285.75,535.625L285.625,536.75L286.625,537.563L286.375,538.563L283.75,539.125L282,538.875L280.875,538.438L279.375,539.75L277.875,541.5L280.813,541.688L282.313,542.875L286.313,541.563L287.188,541.625L286.438,542.938L284.75,543.625L282.438,543.875L281,544.5L278.688,545.313L278.563,546.813L277.5,547.75L276.125,547.625L276.188,548.875L274.188,549.125L273.125,550.938L272.688,552.75L273.25,553.625L275.5,554.563L276.625,552.188L277.688,552.75L278.063,553.813L280.125,555.188Z" style="fill:rgb(255,102,102);stroke:black;stroke-width:0.4px;"/>
            </g>
            <g id="E" transform="matrix(1,0,0,1,-28.0005,39.8125)">
                <path d="M258,589.188L259.063,589.75L259.938,593.25L260.438,594.563L259.688,595.5L259,597.188L259.438,598.813L261,600.688L260.688,601.688L261.438,604.438L262.313,606.5L265.5,606.25L268.375,606.875L268.625,604.938L269.25,604.125L270.563,604.375L271,602.938L272.188,601.813L272,600.625L273.938,600.188L276.25,600.938L276.625,602.25L278.188,601.5L279.375,602.25L281.5,600.313L282.563,600.188L281.5,596.563L282.5,595.75L280.75,593.188L281.063,591.063L283.063,591L283.625,592.063L284.875,591.875L284.375,590.188L284.938,589.563L286.5,588.188L287.438,589.125L289.125,588.438L291.25,591.125L291.938,589.813L293.25,590.5L294.375,595L296.063,595.25L297.375,594.313L296.438,592.5L297.813,591.625L296.063,589.875L295.75,588.563L297.688,589.438L298.75,586.75L297.563,585L295.75,583.625L299.313,582.875L300.063,581L298.438,579.688L296.375,579.563L295.813,578.125L293.813,577.563L293.125,576.5L294.188,576.625L296.5,577L298.813,576.188L300.375,573.625L298.688,571.938L296.188,570.063L293.188,568.688L290,568.438L289.563,570.313L288.375,568.938L286.688,569.625L286,569.313L286,567.938L286.813,567.125L289,567.438L290.5,567.438L293.375,568.188L295.563,568.563L297,568.625L295.688,566.75L292.625,565.688L288.875,565.563L286.375,560.75L285.813,559.875L284.5,559.563L283.063,557.938L282.125,556.125L280.125,555.188L278.063,553.813L277.688,552.75L276.625,552.188L275.5,554.563L273.25,553.625L271.063,556L271.813,557.375L270.875,558.813L269.125,558.813L268.688,560.625L268,559.438L267,560L265.063,558.813L263.75,560.375L262.625,560.375L261.625,561.688L260.813,563.313L260.375,564.813L258.438,565.938L258.125,568.625L256.688,570.375L258.125,571.563L259.438,571.875L260.188,572.563L258.813,573.375L258,575.375L256.688,576L255.75,575L254.813,575.438L254.75,576.75L252.25,578.75L251.938,580.125L251.5,581.563L251.75,582.375L251.188,583.25L250.688,586L249.438,590.063L250.875,590.625L254,590.188L254.125,591.438L257.125,590.813L258,589.188Z" style="fill:rgb(255,1,0);stroke:black;stroke-width:0.4px;"/>
            </g>
            <g id="F" transform="matrix(1,0,0,1,-28.0005,39.8125)">
                <path d="M259,597.188L259.688,595.5L260.438,594.563L259.938,593.25L259.063,589.75L258,589.188L257.125,590.813L254.125,591.438L254,590.188L250.875,590.625L249.438,590.063L247.875,592.5L247.438,594.25L245.313,595.625L243.813,598.313L243.313,600.25L243.125,602.625L242,602.688L241.375,603.25L240.75,602.813L240.938,601.125L240.625,599.438L240.063,598.875L240.188,595.938L241.125,594.313L241.938,591.563L242.438,588.313L240.313,588L240.25,591.125L239.313,592.25L239.188,593L236.813,593.688L236.688,592.688L235.063,592L234.438,592.438L233.375,591.813L232.875,591.938L232.438,593.375L231.313,594.688L231.313,596.5L232.125,598.75L231.875,600.375L231.813,603.625L231.063,604.75L230.938,605.875L231.563,607.5L231.188,608.625L230.188,609.125L230.063,610L230.25,611.875L229.875,613L228.813,613.688L226.188,617.688L225.688,619.125L224.438,619.75L224.375,620.75L223.375,621L223,621.75L221.313,622.125L220.75,624.375L219.75,623.938L219.063,624.875L218.625,626.875L217.5,628.25L216.438,629.125L216.438,630.438L217.25,633.063L219.313,631.313L219.563,630.063L220.438,630.563L222.438,629.75L224.688,630.125L225.313,629.625L225.5,630.938L226.188,630.75L227.938,631.938L227.563,633.438L228.125,634.75L229.563,635.375L230.063,632.625L231.063,632.063L232.625,632.25L233.563,634.563L234.875,633.938L235.125,632.938L237.125,632.375L238.313,632.813L239.188,633.75L239.625,633.375L240.938,635.5L241.125,637.25L242,639.375L243,639.938L244.063,639.313L245.313,636.438L244,634.75L243.75,633.313L244.25,632.625L244.313,628.875L245.375,628.875L247.563,628.813L248.875,628.5L249.063,627.188L249.938,627.375L250.313,626.813L251.75,626.625L253,625.875L254.313,625.875L255.688,626.625L256.625,627.625L257,629.625L258.25,629.563L258.625,628.563L259.563,628.313L260.5,627.75L260.875,627.063L262.438,627.188L261.5,625.75L262.813,625.75L263.813,626.5L267.375,626L270.75,627.313L270.063,625.5L269.313,624.938L269.25,622.813L270.25,622.063L269.875,620.25L270.188,619.5L270.125,617.25L271.188,616.438L272.375,617.313L272.438,615.438L273.125,614.813L272.813,613.625L271.875,612.813L273.563,610.688L270.438,608.25L268.875,607.938L268.375,606.875L265.5,606.25L262.313,606.5L261.438,604.438L260.688,601.688L261,600.688L259.438,598.813L259,597.188Z" style="fill:rgb(255,1,0);stroke:black;stroke-width:0.4px;"/>
            </g>
            <g id="G" transform="matrix(1,0,0,1,-28.0005,39.8125)">
                <path d="M260.5,627.75L259.563,628.313L258.625,628.563L258.25,629.563L257,629.625L256.625,627.625L255.688,626.625L254.313,625.875L253,625.875L251.75,626.625L250.313,626.813L249.938,627.375L249.063,627.188L248.875,628.5L247.563,628.813L245.375,628.875L244.313,628.875L244.25,632.625L243.75,633.313L244,634.75L245.313,636.438L244.063,639.313L243,639.938L242,639.375L241.125,637.25L240.938,635.5L239.625,633.375L239.188,633.75L238.313,632.813L237.125,632.375L235.125,632.938L234.875,633.938L233.563,634.563L232.625,632.25L231.063,632.063L230.063,632.625L229.563,635.375L229.688,636.375L228.875,638.75L228.063,638.438L227.813,639.188L226.063,639.188L225,640.125L224.625,639.625L222.375,640.25L221.688,639.813L220.688,640.75L221.125,643.813L221.125,647.063L222.125,648.375L222.688,650.375L223,651.563L223.563,652.188L224.188,654.5L223.563,656.188L224.063,657L223.688,657.875L224.563,658.75L226.375,658.875L229.313,658.188L231.25,657.375L233.063,657.438L234.375,656.688L236.375,656.75L237.313,655.25L237.5,654.188L238.375,654.125L239.063,655.188L241.438,655.875L241.75,655.438L245.438,656.438L247.875,657.438L249.5,657.688L251.125,659.813L252.063,660.25L254.125,660.625L255.875,661.438L256.813,660.625L257.875,658.375L259.063,657.5L261.5,657.5L261.688,658.375L263,658.375L263.25,657.313L264.313,656.625L265.313,657.5L266.25,656.438L266.438,654.125L267.063,653.5L266.875,651.688L268.188,649.938L267.938,648.875L268.188,647.125L266.813,644.563L268.625,643.813L270.938,643.438L271.188,642.188L270.25,639.688L270.313,638.875L271.25,638.375L273.438,639.188L274.375,639L276.938,638.75L277.688,636.5L276.75,634.563L275.313,632.625L273.75,631.938L272.875,630.188L270.875,629.25L271.313,628L270.75,627.313L267.375,626L263.813,626.5L262.813,625.75L261.5,625.75L262.438,627.188L260.875,627.063L260.5,627.75Z" style="fill:rgb(255,51,51);stroke:black;stroke-width:0.4px;"/>
            </g>
            <g id="H" transform="matrix(1,0,0,1,-2.05353,4.4018)">
                <g id="polygon75" transform="matrix(1,0,0,1,-25.947,35.4107)">
                    <path d="M275.313,632.625L276.75,634.563L277.688,636.5L276.938,638.75L274.375,639L273.438,639.188L271.25,638.375L270.313,638.875L270.25,639.688L271.188,642.188L270.938,643.438L268.625,643.813L266.813,644.563L268.188,647.125L267.938,648.875L268.188,649.938L266.875,651.688L267.063,653.5L266.438,654.125L266.25,656.438L267.688,655.938L269.563,656.688L269.813,655.313L271.438,655.938L272,657.188L273.125,657.188L273.5,658.25L273.938,659.25L275.188,659.625L276.625,662.375L277.875,663.313L280.063,663.188L281,663.875L282.5,663.125L283.188,659.875L284,657.125L284.938,656.188L285.5,654.313L286.313,654L286.25,652.063L286.563,650.813L287.563,648.875L289.188,648.438L290.125,644.375L291.063,645.125L291.75,644.313L291.125,643.313L290.375,643.813L291,640.063L291.5,637.875L291.375,636.063L292.125,633.875L294.125,630.875L292.25,630L291.438,627.313L292.25,625.75L291.813,623.75L293.5,622.5L293.25,620.25L294.813,620.188L295.625,618L296.313,615.563L295.875,614.063L293.875,611.688L295.875,611.5L296.625,610.75L296.625,609.438L295.188,610L294.375,608.938L295.063,607.313L296.313,606.625L296.25,604.563L294.625,603.5L292.75,600.813L294.188,598.688L296.063,599L297.313,600.063L297.75,597.688L297.375,594.313L296.063,595.25L294.375,595L293.25,590.5L291.938,589.813L291.25,591.125L289.125,588.438L287.438,589.125L286.5,588.188L284.938,589.563L284.375,590.188L284.875,591.875L283.625,592.063L283.063,591L281.063,591.063L280.75,593.188L282.5,595.75L281.5,596.563L282.563,600.188L281.5,600.313L279.375,602.25L278.188,601.5L276.625,602.25L276.25,600.938L273.938,600.188L272,600.625L272.188,601.813L271,602.938L270.563,604.375L269.25,604.125L268.625,604.938L268.375,606.875L268.875,607.938L270.438,608.25L273.563,610.688L271.875,612.813L272.813,613.625L273.125,614.813L272.438,615.438L272.375,617.313L271.188,616.438L270.125,617.25L270.188,619.5L269.875,620.25L270.25,622.063L269.25,622.813L269.313,624.938L270.063,625.5L270.75,627.313L271.313,628L270.875,629.25L272.875,630.188L273.75,631.938L275.313,632.625Z" style="fill:rgb(220,1,0);stroke:black;stroke-width:0.4px;"/>
                </g>
                <g id="polygon77" transform="matrix(1,0,0,1,-25.947,35.4107)">
                    <path d="M292.938,645.063L291.563,648.5L291.125,650.688L290,652.688L289.813,654.375L290,658.563L290.438,658.75L290.375,665.25L290.75,665.938L290.625,668.063L292.063,666.75L292.813,664.438L294.25,660.938L293.875,659.563L294.813,657.313L295.5,654.813L295.688,652.875L296.875,651.688L296.688,650.813L297.063,648.563L298.688,642.5L299.75,642.188L300.375,640.75L300.313,639.438L300.813,638.563L300.813,635.75L302.063,634.625L301.5,633.313L302.375,633.313L303.125,630.563L304.25,628.125L304.813,627.563L304.813,625.125L304.5,624.188L305.063,622.75L306.125,622.125L305.75,620.563L305.125,620.938L304.625,620.25L303.688,621.063L302.563,622.875L302.375,624.875L302.125,626.188L301.25,626.75L301.5,628.125L301,630.188L300,632.375L299.313,634.063L298.438,634.938L297.75,636.938L297.063,639.438L295.75,639.438L294.813,640.25L294.125,642.688L292.938,645.063Z" style="fill:rgb(220,1,0);stroke:black;stroke-width:0.4px;"/>
                </g>
            </g>
            <g id="I" transform="matrix(1,0,0,1,-28.0005,39.8125)">
                <path d="M335.188,600.188L336.438,599.75L337.438,599.438L337.875,597.688L338.813,596.875L339.938,596.188L341.5,599.375L342.375,596.625L343.25,595.688L346.313,596.313L347.5,595.313L347.813,593.688L349.438,592.688L351.25,593.25L352.5,593.125L352.875,593.938L352.313,594.688L350.688,594.75L349.375,595.25L348.813,595.875L349.313,596.875L348.5,598.563L347.125,599.438L346.438,599.938L346.563,601.438L345.125,601.5L345.063,604.063L343.375,604.188L342.25,603.375L342.063,605.563L341.375,608.563L342.188,609L341.938,611.5L341.25,612.75L342.313,614.688L343.688,615.688L345.063,616L344.438,617.75L342.75,618.375L341.375,618.813L339.875,621.25L339.938,622.5L340.813,623.125L340.063,624.563L337.563,625.563L337.25,626.375L334.188,628.875L335.063,629.25L332.813,631.063L332.938,633.688L334.125,634.188L332.563,636.438L330.188,638.188L328.688,638.063L329.875,635.188L330.063,633.5L331.5,632.563L332,631.375L331.75,630.375L330.375,631.5L329.875,631.25L330.188,628.875L329.188,628.125L328.5,627.563L328.5,624.375L327.313,624L327.563,622.375L328.688,621.063L328.938,618.438L328.125,617.375L327.625,615.25L327.125,613.25L327.438,611.688L329.188,609.5L330.375,608.938L331.813,606.813L333.375,603.75L334.063,601.188L335.188,600.188Z" style="fill:rgb(149,0,0);stroke:black;stroke-width:0.4px;"/>
            </g>
            <g id="K" transform="matrix(1,0,0,1,-28.0005,39.8125)">
                <path d="M248.75,668L249.188,672.688L248.25,673.125L248.063,674.25L249.438,675.438L250.688,676.125L252.188,676.25L253.438,674.75L252.063,673.25L251.313,671.375L251.188,669.688L252.438,669.938L253.375,670L255.063,669.75L257.375,669.625L259,669.625L259.875,668.625L260.688,669.563L262.25,669.688L264.25,669.313L265.188,669L265.75,670.75L267.313,669.875L267.875,668.875L268.938,670L269.813,669.125L271.313,668.563L272.063,669.125L274.313,668.688L275.438,669.75L275.063,670.938L273.625,672.313L274.688,672.688L276.438,671.625L277.938,673L279.313,669.938L280.313,669.25L281.563,666.75L282.5,663.125L281,663.875L280.063,663.188L277.875,663.313L276.625,662.375L275.188,659.625L273.938,659.25L273.5,658.25L273.125,657.188L272,657.188L271.438,655.938L269.813,655.313L269.563,656.688L267.688,655.938L266.25,656.438L265.313,657.5L264.313,656.625L263.25,657.313L263,658.375L261.688,658.375L261.5,657.5L259.063,657.5L257.875,658.375L256.813,660.625L255.875,661.438L254.125,660.625L252.063,660.25L251.125,659.813L249.5,657.688L247.875,657.438L246.563,659.688L245.25,660.063L244.75,662.125L245.188,663.563L245.625,664.875L245.813,666.688L247,667.188L248.25,667L248.75,668Z" style="fill:rgb(220,1,0);stroke:black;stroke-width:0.4px;"/>
            </g>
            <g id="M" transform="matrix(1,0,0,1,-28.0005,39.8125)">
                <path d="M229.313,658.188L231.25,657.375L233.063,657.438L234.375,656.688L236.375,656.75L237.313,655.25L237.5,654.188L238.375,654.125L239.063,655.188L241.438,655.875L241.75,655.438L245.438,656.438L247.875,657.438L246.563,659.688L245.25,660.063L244.75,662.125L245.188,663.563L245.625,664.875L245.813,666.688L247,667.188L248.25,667L248.75,668L249.188,672.688L248.25,673.125L248.063,674.25L246.25,674.875L245.375,676.563L243.625,677.625L242.875,679.438L241.875,679.938L240.125,683L239.875,685.813L240.25,688.5L241.563,689.438L241.938,691.813L243.188,692.938L243.438,694.75L242.688,696.313L241,698.063L239.75,700.313L239.313,701.063L237.25,700.75L236.313,700.875L233.938,699.063L232.938,698.625L231.438,699L228.813,698.75L227.938,699.25L226.75,699.25L225.438,700.875L222.875,700.75L222.125,701L221.375,701.625L220.438,701.688L219.375,702.375L219,701.938L218.188,702L217.688,701.75L216.5,701.125L214.375,700.563L213.5,700.75L213,700.75L211.875,699.938L211.063,699.375L210.375,699.5L210,699.688L209.875,700L209.5,700L209.188,699.625L208.75,699.5L207.313,700L208.563,697.563L208.688,697.813L208.875,698.688L209.563,698.938L210.125,699.063L210.375,698.563L210.75,697.688L210.813,696.688L210.625,696L210.375,695.25L209.875,694.188L209.813,693.125L209.813,692.375L210.25,691.938L211.438,691.188L212.125,690.75L213.063,690.5L213.313,690L213.25,689.563L213.25,689.25L213.625,688.438L213.563,688.125L213.313,687.313L212.938,687.063L212.125,686.313L211.563,686.375L211.188,686.188L211.438,685.75L211.188,685.188L210.5,685.438L210.125,684.875L210.5,684.438L210.813,684.188L210.625,682.125L210.188,680.563L208.625,680.188L207.438,676.438L207.063,674.438L206.188,672.688L205.063,671.313L204.125,669.875L203.438,669L203.188,668.313L202.813,665.75L202.5,664.5L201.813,663.188L200.875,662.375L201.875,662.313L203.938,663.625L205.75,664.75L206.25,665.625L206.938,665.625L207.75,665.875L208.25,666L209.125,665.438L209.625,664.188L209.063,662.875L207.938,661.688L207.438,660.25L206.313,659.25L205.125,658.875L205,657.25L206.125,656.375L207.25,655.875L208.75,656.563L209.875,657.375L211.188,656.875L212.688,657.813L212.063,660.063L213.063,660.313L216.625,660.875L217.75,661.875L218.813,660.813L220.125,659.5L221.875,658.438L222.813,658.563L223.688,657.875L224.563,658.75L226.375,658.875L229.313,658.188Z" style="fill:rgb(255,102,102);stroke:black;stroke-width:0.4px;"/>
            </g>
            <g id="N" transform="matrix(1,0,0,1,-28.0005,39.8125)">
                <path d="M220.688,640.75L221.125,643.813L221.125,647.063L222.125,648.375L222.688,650.375L223,651.563L223.563,652.188L224.188,654.5L223.563,656.188L224.063,657L223.688,657.875L222.813,658.563L221.875,658.438L220.125,659.5L218.813,660.813L217.75,661.875L216.625,660.875L213.063,660.313L212.063,660.063L212.688,657.813L211.188,656.875L211.938,655.75L212.375,654.563L212.5,652.625L212.25,650.75L211.625,648.688L210.313,647.875L209.063,648.688L207.813,648.625L206.938,646.688L206.188,644.938L205.438,642.813L205.563,640.813L204.313,639.625L202.625,638.25L200.938,637.625L199.875,636.25L200.25,634.938L200.25,633.875L199.688,632.438L198.625,631.688L198,630.063L197.875,627.75L196.813,625.938L195.438,624.25L195.563,622.625L196.688,622.063L196.563,620.938L196.375,619.563L196.125,619.188L195.313,619.375L195.063,618.938L195.625,617.5L195.688,615.563L195.5,614.688L195.063,614.438L194.625,614.875L194.313,615.813L193.75,617.813L193.438,618.438L193.063,618.625L192.563,618.375L192.25,617.625L191.5,615.688L191.438,615L191.625,614.25L192.25,612.625L192.188,611.563L192.125,610.188L193.563,610.188L194.125,610.75L196.313,610.375L197.813,609.875L199.625,608.813L200.813,610.375L200.375,611.938L200.75,612.625L200.938,613.5L200.688,614.375L200.875,614.875L201.438,615.125L201.75,615.5L202,616.875L201.5,619.688L202.25,620.563L202.125,622.563L203.813,622.313L204.375,620.625L207.188,620.125L208.375,620.375L210.313,622.25L211.625,623.188L213.25,623.313L213.688,624.5L213.188,624.813L213.313,627L214.875,626.625L215.875,627L215.625,627.875L216.188,628.188L216.813,627.75L217.5,628.25L216.438,629.125L216.438,630.438L217.25,633.063L219.313,631.313L219.563,630.063L220.438,630.563L222.438,629.75L224.688,630.125L225.313,629.625L225.5,630.938L226.188,630.75L227.938,631.938L227.563,633.438L228.125,634.75L229.563,635.375L229.688,636.375L228.875,638.75L228.063,638.438L227.813,639.188L226.063,639.188L225,640.125L224.625,639.625L222.375,640.25L221.688,639.813L220.688,640.75Z" style="fill:rgb(255,1,0);stroke:black;stroke-width:0.4px;"/>
            </g>
            <g id="O" transform="matrix(1,0,0,1,-2.05353,4.4018)">
                <g id="polygon135" transform="matrix(1,0,0,1,-25.947,35.4107)">
                    <path d="M199.625,608.813L197.813,609.875L196.313,610.375L194.125,610.75L193.563,610.188L192.125,610.188L192.313,609.188L192.375,607.438L192.188,607.063L191.813,607.688L191.563,607.625L190.938,605.813L190.938,605.5L191.125,605.188L192.688,604.313L192.25,604.313L191.625,604.5L191.313,604.25L190.313,604.438L189.938,603.813L189.625,603.688L189.313,603.813L189.188,604.313L188.938,604.438L188.625,604.438L188.25,604.313L187.938,603.688L187.813,603.438L187.813,603.063L188.25,602.5L189,602.125L189.813,601.875L190.063,600.625L189.625,600.625L189,600.688L188.75,600.5L188.625,599.625L188.5,599.313L188,598.875L187.75,598.438L187.938,597.938L188.375,597.313L188.625,596.813L188.875,596L189.625,594.625L189.313,594.188L189.375,593.625L189.5,593.25L190.625,592.063L190.938,591.063L191,590.188L190.875,589.25L190.813,588.375L191.188,587.875L191.688,587.25L192.063,586.563L192.188,585.563L192.063,584.563L192.5,584.438L193,583.875L193.063,583.188L192.438,583.188L192.438,582.313L192,581.438L191.375,580.313L191.563,579.813L192.438,578.813L191.125,578.813L190.188,578.5L189.313,578.563L189.75,579.063L189.5,579.438L188.688,579.438L188.188,580.375L187.563,580.938L187,581.313L186.375,581.438L186,582.25L185.438,582.875L184.688,583.25L183.625,583.438L182.688,583.5L182.5,583.188L183.125,582.25L183.5,581.75L184.125,581.625L184.688,581.25L185.25,580.625L185.563,580.125L185.563,579L185.063,579.375L184.5,580.188L184,580.625L183.125,580.75L183.063,580.438L183.438,580.063L183.625,579.375L183.125,579.25L182.75,579L183,578.25L183.188,577.375L182.5,577.563L182.563,576.313L181.938,576.875L181.375,576.688L181.188,576.313L180.875,576.25L180.688,576.688L179.938,577.125L179.188,577.125L179.125,576.688L179.688,576L179.625,575.563L179.563,575L179.563,574.25L179.75,573.688L180.125,573.625L180.25,574.188L180.563,574.25L181,574L181.125,573.5L181,572.938L181,572.313L180.063,568.375L180.938,567.063L180.063,563.438L178.563,560.688L178.875,557.125L178.75,556.188L178.063,554L178.125,553.375L178.188,553.25L178.688,553.438L179,553.375L179,553L178.438,552.125L178.313,551.625L178.375,549.813L180.25,546.75L181.125,546.625L181.688,546.313L182.5,545.813L183.438,546.125L185.188,550.063L184.75,553.875L184.813,554.938L185.875,555.688L189.063,554.375L189.688,552.688L189.75,551.25L190.563,549.25L192.188,546.875L191.75,546.063L192.063,542.625L193.438,541.625L196.125,540.688L198.875,543.5L198.563,540.438L202.063,540.563L202.688,543.5L204.313,544.25L205.938,543.875L206.688,546.063L209,546.625L210.438,544.188L211.938,545L213.063,546.063L213.063,549.438L211.125,552.75L210.313,554L209.875,557.125L208,559.875L206.5,562.25L206.5,564.625L207.5,565.75L209.688,566L210.063,566.688L209,567.625L207.75,569.188L206.75,570.938L205.375,572.625L203.625,573.688L202.313,575.438L202.25,576.688L204.188,577.063L205,576.5L206.25,576.75L208.125,574L209.313,574.188L208.813,576.625L210.375,576L210.313,575.063L211.938,573.188L214.5,572.813L215.875,570.688L215.813,569.938L217.25,568.5L219.625,564.875L221.063,565.188L221.875,565.938L221.063,568.5L219.813,572.313L220.625,572.938L222.313,573.25L223.313,572.5L223.75,570.625L224.375,568.563L226.313,567.25L228.375,566.625L230.188,565.5L232.125,565.5L233.563,565.125L235.563,563.438L236.188,562.438L235.438,562L233.875,562.563L232.938,563.188L232.75,561.688L231.5,560.438L231.938,559.063L235.563,559.813L236.625,560.563L237.875,559.313L238.75,557.438L239.188,555.125L238.875,553.125L241.313,551.625L243.25,551.625L244.438,553.375L245.188,557.813L246.5,558.75L245.5,560.188L247.125,561.688L248.25,561.75L248.438,564.75L249.938,564.75L250.063,565.875L251.125,565.563L251.813,563.938L253.063,563.938L253.813,565.75L252.688,567.125L250.938,567.938L249.938,568.875L249.875,570.625L249.688,572.25L248.688,574.625L247.875,575.125L246.688,577.813L245.625,580.125L244.063,582L243.438,585L242.625,586.625L242.438,588.313L240.313,588L240.25,591.125L239.313,592.25L239.188,593L236.813,593.688L236.688,592.688L235.063,592L234.438,592.438L233.375,591.813L232.875,591.938L232.438,593.375L231.313,594.688L231.313,596.5L232.125,598.75L231.875,600.375L231.813,603.625L231.063,604.75L230.938,605.875L231.563,607.5L231.188,608.625L230.188,609.125L230.063,610L230.25,611.875L229.875,613L228.813,613.688L226.188,617.688L225.688,619.125L224.438,619.75L224.375,620.75L223.375,621L223,621.75L221.313,622.125L220.75,624.375L219.75,623.938L219.063,624.875L218.625,626.875L217.5,628.25L216.813,627.75L216.188,628.188L215.625,627.875L215.875,627L214.875,626.625L213.313,627L213.188,624.813L213.688,624.5L213.25,623.313L211.625,623.188L210.313,622.25L208.375,620.375L207.188,620.125L204.375,620.625L203.813,622.313L202.125,622.563L202.25,620.563L201.5,619.688L202,616.875L201.75,615.5L201.438,615.125L200.875,614.875L200.688,614.375L200.938,613.5L200.75,612.625L200.375,611.938L200.813,610.375L199.625,608.813Z" style="fill:rgb(255,51,51);stroke:black;stroke-width:0.4px;"/>
                </g>
                <g id="polygon137" transform="matrix(1,0,0,1,-25.947,35.4107)">
                    <path d="M191.25,587.25L191.438,586.563L191.563,585.5L191.5,584.625L191.688,584L191.938,583.313L191.813,582.75L191.438,582.188L191,581.875L190.625,581.563L190.438,580.813L190.5,580.063L189.688,579.938L189.25,580L188.5,580.438L188.375,581L188.438,581.625L188.313,582.063L188,582.063L187.5,582L187,582.063L186.5,582.625L186.063,583.125L185.5,583.5L185.063,583.75L184.438,584L184.063,584.25L183.625,584.563L183.125,584.5L182.563,584.313L181.875,585.125L181.438,586.125L181.75,585.938L182.063,585.5L182.563,585.563L182.625,586.063L183,586.5L183.5,587.063L183.75,587.625L183.625,588.125L183.313,588.625L183.063,588.813L183.375,589.188L183.813,588.75L184.063,589.125L184.375,589.25L184.813,589.188L185.313,588.688L185.688,588.125L185.813,587.5L186.125,587L186.875,586.563L187.375,586.875L188,587.313L188.313,587.625L188.25,588.188L188.75,588.313L189.188,587.688L189.625,587.438L189.813,587.375L190.438,587.313L191.25,587.25Z" style="fill:rgb(255,51,51);stroke:black;stroke-width:0.3px;"/>
                </g>
                <g id="polygon139" transform="matrix(1,0,0,1,-25.947,35.4107)">
                    <path d="M187.75,592.875L187.75,593.125L187.438,593.313L186.938,593.5L186.625,593.75L186.438,594.188L186.25,594.563L185.5,594.625L185.375,594.25L185.375,593.438L185,593.25L184.875,593.125L184.688,592.875L184.688,592.313L184.75,591.875L185,591.813L185.625,591.813L185.688,591.5L185.625,591.125L184.75,591.188L184.375,591.125L184.188,590.75L184.188,590.375L184.438,589.813L184.75,589.625L185.063,589.5L186.25,589.75L186.688,589.625L186.938,589.375L187.438,588.313L187.625,588.125L188,588.188L188.438,588.563L188.375,588.938L188.063,589.375L188.5,589.563L189.125,589.188L189.5,589.625L189.563,590.313L189.5,591.313L189.313,591.938L188.938,592.25L188.688,592.188L188.563,591.75L188.125,591.625L187.938,592.375L187.75,592.875Z" style="fill:rgb(255,51,51);stroke:black;stroke-width:0.3px;"/>
                </g>
                <g id="polygon141" transform="matrix(1,0,0,1,-25.947,35.4107)">
                    <path d="M186.875,602L187.313,601.813L187.625,602.5L187.313,603L187,603.75L187,604.5L186.875,604.938L186.625,605.125L185.563,604.25L185.563,603.875L186.063,603.938L186.188,603.563L186,603.375L186,603L186.438,603.063L186.438,602.313L186.875,602Z" style="fill:rgb(255,51,51);stroke:black;stroke-width:0.3px;"/>
                </g>
                <g id="polygon143" transform="matrix(1,0,0,1,-25.947,35.4107)">
                    <path d="M186.938,595.813L187.875,595.938L187.5,596.75L185.938,597.563L185.25,597.063L186.063,596L186.938,595.813Z" style="fill:rgb(255,51,51);stroke:black;stroke-width:0.3px;"/>
                </g>
                <g id="polygon145" transform="matrix(1,0,0,1,-25.947,35.4107)">
                    <path d="M185,602.313L185.375,602.438L186.313,601.25L185.625,600.25L185,602.313Z" style="fill:rgb(255,51,51);stroke:black;stroke-width:0.3px;"/>
                </g>
                <g id="polygon147" transform="matrix(1,0,0,1,-25.947,35.4107)">
                    <path d="M189.75,588.813L190,588.75L190.25,588.375L190.25,587.938L189.938,587.75L189.813,588.313L189.75,588.813Z" style="fill:rgb(255,51,51);stroke:black;stroke-width:0.2px;"/>
                </g>
                <g id="polygon149" transform="matrix(1,0,0,1,-25.947,35.4107)">
                    <path d="M189.125,588.563L189.5,587.875L189.563,588.625L189.125,588.563Z" style="fill:rgb(255,51,51);stroke:black;stroke-width:0.2px;"/>
                </g>
            </g>
            <g id="S" transform="matrix(1,0,0,1,-28.0005,39.8125)">
                <path d="M220.25,542.375L221.375,541.25L221.438,538.25L222.063,539.188L222.875,540.063L224.125,539.938L223.625,538.688L224.25,537.813L226.313,537.5L227.438,539L228.75,541.875L230.313,540.375L230.938,538.438L232.813,537.625L233.813,539.375L235.313,538.125L236.813,539.375L238.063,540.188L239.813,540.125L240.5,543.938L239.063,546.688L237.813,549.125L237.75,551.375L238.438,551.688L239.375,550.063L240.938,548.938L242,549.875L241.313,551.625L243.25,551.625L244.438,553.375L245.813,549.438L244.875,546.938L245.25,545.938L245,543.938L245.813,540.625L245.813,540.188L247.063,537.188L248.938,535.188L247.625,532.375L248.063,531.313L249,531.688L249,529.313L248.25,526L248.625,524.563L247.563,522.438L248.688,521.75L248.25,519.5L248.625,516.313L247.5,515.813L246.875,514.375L249.375,513.438L248.875,511.563L244.375,508.438L243.875,505.25L243,502.438L240.938,502.625L240.563,501.438L239.188,501.438L239.438,504.625L237.125,501.313L234.125,495.125L231.625,494.875L230.25,493.75L229.125,490.438L226.688,485.875L225.875,483.313L224.75,483.313L224.25,480.5L215.313,470.188L214.875,468.125L213.625,468.5L211.063,468.125L206,469.25L207.875,474.5L207.688,476.313L208.563,480.625L210.75,484.563L210.625,486.563L212.313,489.938L212.25,494.375L209.813,497.875L210.438,503.625L209.563,505.75L208.188,509.563L206.75,510.5L206.063,512.375L203.375,513.563L202,515L199.875,515.313L198.125,514.563L195.813,516.75L197.063,519.313L197.125,521.75L195.875,523.188L195.188,524.563L192.813,525.063L191.688,527.063L192.5,531.188L192.938,535.438L193.625,537.188L193.438,541.625L196.125,540.688L198.875,543.5L198.563,540.438L202.063,540.563L202.688,543.5L204.313,544.25L205.938,543.875L206.688,546.063L209,546.625L210.438,544.188L211.938,545L213.063,546.063L213.063,549.438L215.75,548.5L215.813,550.188L217.688,549.875L218.25,551.5L219.375,551.563L219.813,555.563L222.063,556.875L223.063,556.063L222.563,549.75L221.5,545.563L220.25,542.375Z" style="fill:rgb(220,1,0);stroke:black;stroke-width:0.4px;"/>
            </g>
            <g id="T" transform="matrix(1,0,0,1,-28.0005,39.8125)">
                <path d="M272.188,536.25L273.438,539.313L272.938,540.563L271.563,540.313L268.875,541.188L265.938,541.063L266,542.125L269,543.375L271.75,542.375L273.438,544.438L272.625,545.75L273.688,547.375L276.125,547.625L276.188,548.875L274.188,549.125L273.125,550.938L272.688,552.75L273.25,553.625L271.063,556L271.813,557.375L270.875,558.813L269.125,558.813L268.688,560.625L268,559.438L267,560L265.063,558.813L263.75,560.375L262.625,560.375L261.625,561.688L260.813,563.313L260.375,564.813L258.438,565.938L259.313,564.063L259.188,562.688L258.5,562.875L258.438,560.75L257.125,561.625L255.875,564.5L253.813,565.75L253.063,563.938L251.813,563.938L251.125,565.563L250.063,565.875L249.938,564.75L248.438,564.75L248.25,561.75L247.125,561.688L245.5,560.188L246.5,558.75L245.188,557.813L244.438,553.375L245.813,549.438L244.875,546.938L245.25,545.938L245,543.938L245.813,540.625L245.813,540.188L247.063,537.188L248.938,535.188L247.625,532.375L248.063,531.313L249,531.688L249,529.313L248.25,526L248.625,524.563L247.563,522.438L248.688,521.75L248.25,519.5L248.625,516.313L247.5,515.813L246.875,514.375L249.375,513.438L248.875,511.563L255.188,512.563L254.625,508.813L256.188,507.813L257.313,507.688L257.438,509.188L258.875,510.25L260.313,509.375L260.813,510.125L261.75,509.938L262.938,511.75L264.813,513.188L267,515.75L268.563,518.5L268.688,520.375L270.188,521.188L271.25,524.813L270.375,526.875L271.25,528L272.625,527.875L272.813,529.563L272.875,532.25L274.875,532.125L274.125,533.563L274.813,534.188L274.813,536.438L272.188,536.25Z" style="fill:rgb(255,1,0);stroke:black;stroke-width:0.4px;"/>
            </g>
            <path id="U" d="M267.5,544.375L264.438,544.563L263.375,545.063L263.375,546.313L261.438,547.563L260.563,549.125L256.75,549.563L256,549.125L256.313,547.5L255,546.688L253.938,546.563L253.25,544.875L252.188,544.563L250.688,545.813L248.313,545.25L247.875,546.563L247.063,547.125L247.125,548.5L245.938,550.625L246.938,551.938L246.25,554.938L244.875,554.375L243.25,554.25L242.25,556.5L240.563,558.313L240.688,560.188L242.188,561L243.25,564.625L242.375,566.688L243.25,567.813L244.625,567.688L244.813,569.375L244.875,572.063L246.875,571.938L246.125,573.375L246.813,574L246.813,576.25L244.188,576.063L245.438,579.125L244.938,580.375L247.875,580.5L248.688,581.938L249.875,581.313L251.375,579.563L252.875,578.25L254,578.688L255.75,578.938L258.375,578.375L258.625,577.375L257.625,576.563L257.75,575.438L254.75,575.75L254.125,573.938L256.563,574L257.938,573.188L259.688,574L262.188,573.438L263,572.313L264.313,570.938L263.625,569.75L265,569L266.5,570.063L267.75,571.688L269.375,571L269.938,570L271.688,570.188L270.875,565.813L269.313,563.5L268.25,561.5L269.375,559.938L270,558.25L270.063,558.25L268.906,556.656L269.344,555.719L269.125,553.781L267.063,552.125L267.688,550.875L267.063,548.063L267.906,547.719L267.563,544.375L267.5,544.375Z" style="fill:rgb(255,102,102);stroke:black;stroke-width:0.4px;"/>
            <path id="W" d="M211.188,541.251L211.438,544.438L209.125,541.126L206.125,534.938L203.625,534.688L202.25,533.563L201.125,530.251L198.688,525.688L197.875,523.126L196.75,523.126L196.25,520.313L187.313,510.001L186.875,507.938L187.5,504.001L189.188,502.751L190.188,500.376L191.125,495.751L186.063,486.751L183.125,486.876L178.188,480.126L182.125,458.376L188,460.313L191.438,460.126L194.063,463.688L195.813,466.251L198.063,468.751L200.688,467.438L201.188,469.251L202.063,469.563L198.875,472.563L202.688,477.126L204.438,480.876L204.25,482.688L205.313,484.251L206.25,483.626L211.625,484.626L213.438,485.313L217.688,485.501L220.688,486.376L221.75,487.501L223.5,485.751L226.5,487.001L227,489.188L226.25,491.126L228.25,490.688L229.25,491.188L231.5,491.001L234.5,491.563L236.313,487.001L237.625,490.813L245.875,502.626L246.438,506.438L247.938,509.313L251.438,511.313L255.563,511.751L257.563,516.751L260.813,520.438L260.25,522.376L258.875,523.501L259.25,524.876L257.625,527.376L255.75,527.938L257.5,531.376L258.375,531.688L258.875,532.876L261,537.063L263.375,537.688L264.563,538.688L264.75,540.188L265.563,540.626L265.813,542.876L267.5,544.376L264.438,544.563L263.375,545.063L263.375,546.313L261.438,547.563L260.563,549.126L256.75,549.563L256,549.126L256.313,547.501L255,546.688L253.938,546.563L253.25,544.876L252.188,544.563L250.688,545.813L248.313,545.251L247.875,546.563L247.063,547.126L247.125,548.501L245.938,550.626L246.938,551.938L246.25,554.938L244.875,554.376L243.25,554.251L242.25,556.501L240.563,558.313L239,555.563L236.813,553.001L234.938,551.563L233.75,549.751L232.813,549.938L232.313,549.188L230.875,550.063L229.438,549.001L229.313,547.501L228.188,547.626L226.625,548.626L227.188,552.376L220.875,551.376L216.375,548.251L215.875,545.063L215,542.251L212.938,542.438L212.563,541.251L211.188,541.251ZM226.25,518.563L227.5,520.563L230.938,518.813L232.063,521.813L232.438,518.626L233.938,518.001L235.188,516.563L233.563,515.438L232.5,516.438L230.938,517.376L227.813,514.126L226.625,514.126L225,511.688L224,512.688L224.25,514.188L225.688,514.376L226.688,515.438L225.75,515.938L224.188,515.938L226.25,518.563Z" style="fill:rgb(220,1,0);fill-rule:nonzero;stroke:black;stroke-width:0.4px;"/>
            <g id="X" transform="matrix(1,0,0,1,-28.0005,39.8125)">
                <path d="M288.813,480.625L288.25,482.563L286.875,483.688L287.25,485.063L285.625,487.563L283.75,488.125L285.5,491.563L286.375,491.875L286.875,493.063L289,497.25L291.375,497.875L292.563,498.875L292.75,500.375L293.563,500.813L293.813,503.063L295.5,504.563L297.063,504.5L298.75,502.813L298.375,501.938L299.188,500.938L303.188,501.625L305.188,499.938L305.125,495.063L307.063,493.25L307.875,485.813L305.188,484.313L307.688,481.938L305.5,479.75L306.125,477.688L303.875,473.625L305,471.625L303.438,470.375L303.688,469.375L303.063,463.5L304.438,462.063L305.063,459.5L302.688,456.688L302.375,454.625L303.75,452.125L302.375,449.188L303.563,447L304.5,444.75L305.313,442.75L307.375,443.625L308.063,445.125L309.25,445.563L309.875,442.063L308.063,441.313L307.375,440.188L307.438,437.75L306.063,436.313L306.813,432.688L308.188,430.125L308.938,424.625L306,423.813L304.25,424.125L302.438,423.25L301.5,423.813L299.125,423.188L297.938,423.438L295.75,422.125L290.375,420.813L285.188,420.688L281.75,420.813L281,420L273.375,416.438L270.688,416.625L267.688,419.25L267.875,421.938L269.063,422.75L269.375,425.813L263,430.688L263.5,432.5L263.313,434.75L263.313,436.625L262.125,435.688L259.313,435.438L258.875,437.563L257.438,435L256.063,435.813L255.375,434.5L252.125,439.375L251.5,445.938L254.5,447.188L255,449.375L254.25,451.313L256.25,450.875L257.25,451.375L259.5,451.188L262.5,451.75L264.313,447.188L265.625,451L273.875,462.813L274.438,466.625L275.938,469.5L279.438,471.5L283.563,471.938L285.563,476.938L288.813,480.625Z" style="fill:rgb(220,1,0);stroke:black;stroke-width:0.4px;"/>
            </g>
            <g id="Y" transform="matrix(1,0,0,1,-28.0005,39.8125)">
                <path d="M285.188,420.688L290.375,420.813L295.75,422.125L297.938,423.438L299.125,423.188L301.5,423.813L302.438,423.25L304.25,424.125L306,423.813L308.938,424.625L309.688,422.563L311.375,422.125L311.875,420.313L309.063,419.5L307.5,417.063L307.813,415.438L309.25,415L308.875,411.813L306.875,411.063L306.813,409.938L308.5,409.313L309.875,412.188L312.688,412.813L312.313,410.875L313.625,409.625L315.5,410.625L316.563,407.5L319.375,405.188L317.75,403.688L319.063,402.625L321,399.438L318.438,399.625L318.125,398.25L320.563,398.688L323.063,395.938L321.938,394.875L322.875,394L325.063,395.625L326.938,392.313L327.813,389.5L324.75,389.063L325.125,387.813L326.688,387.688L326.875,385.813L328.688,381.938L330.75,382.063L334.625,379.313L336.188,380.375L337.625,378.563L337.688,375.125L339.75,374.563L340.375,368.813L338.375,365.375L338.313,363.688L334.063,357.313L332.875,356L331.063,356.313L330.125,355.125L327.938,354.688L325.313,354.375L324.063,351.313L324.813,349.563L323.125,348L311.188,353.125L303.063,351.813L295.563,350.438L293.375,348.063L291,353.5L290.813,356.438L291.563,360.688L287.188,362.625L285.938,361.938L285,362.875L282.188,361.5L280.188,363.25L278.188,362L276.75,362.625L280.25,367.063L279.938,369.063L280.125,371.875L281.438,371.375L282.938,372.125L282.75,374.625L291.625,382.563L299.375,391.813L292.813,392.813L289.375,397.375L288,399.313L287.438,402.063L285.313,401.438L282.938,402.438L279.875,401.688L272.938,405.125L266.5,406L264.375,407.5L263.188,406.25L260.125,405.875L257.813,406.313L257.875,408.75L258.5,411.813L257.438,411.813L257.938,413.938L259.125,414.25L260.563,417.688L264.563,420.063L266.75,418.438L267.688,419.25L270.688,416.625L273.375,416.438L281,420L281.75,420.813L285.188,420.688Z" style="fill:rgb(185,0,0);stroke:black;stroke-width:0.4px;"/>
            </g>
            <path id="Z" d="M261.375,437.188L260,439.126L259.438,441.876L257.313,441.251L254.938,442.251L251.875,441.501L244.938,444.938L238.5,445.813L236.375,447.313L235.188,446.063L232.125,445.688L229.813,446.126L229.875,448.563L230.5,451.626L229.438,451.626L229.938,453.751L231.125,454.063L232.563,457.501L236.563,459.876L238.75,458.251L239.688,459.063L239.875,461.751L241.063,462.563L241.375,465.626L235,470.501L235.5,472.313L235.313,474.563L235.313,476.438L234.125,475.501L231.313,475.251L230.875,477.376L229.438,474.813L228.063,475.626L227.375,474.313L224.125,479.188L223.5,485.751L221.75,487.501L220.688,486.376L217.688,485.501L213.438,485.313L211.625,484.626L206.25,483.626L205.313,484.251L204.25,482.688L204.438,480.876L202.688,477.126L198.875,472.563L202.063,469.563L201.188,469.251L200.688,467.438L198.063,468.751L195.813,466.251L194.063,463.688L191.438,460.126L188,460.313L182.125,458.376L178.188,443.626L179.938,438.188L179.313,431.938L181.75,428.251L178.063,416.876L182.875,408.876L182,404.126L184.688,401.188L185.25,399.001L186.563,397.501L192.313,388.813L196.313,385.813L201.875,384.188L203.688,384.626L211.25,386.438L215.813,388.001L219.563,380.438L219.25,372.063L219.188,369.501L218.438,368.563L215.563,367.563L211.25,364.313L221.313,345.251L223.438,342.501L228.375,346.938L229.313,347.313L230.063,348.438L231.313,349.876L231.188,351.438L232.563,353.126L234,353.251L235.375,355.251L235.625,357.626L238.875,359.188L240.563,361.938L239.375,362.751L240.625,363.563L241.063,364.751L242.125,364.376L242.188,365.438L244.25,367.251L244.75,370.313L245.938,370.376L245.75,367.251L247.063,366.501L247.875,369.001L248.063,371.501L252.813,374.751L252.938,377.751L256,377.376L265.375,387.876L263,393.313L262.813,396.251L263.563,400.501L259.188,402.438L257.938,401.751L257,402.688L254.188,401.313L252.188,403.063L250.188,401.813L248.75,402.438L252.25,406.876L251.938,408.876L252.125,411.688L253.438,411.188L254.938,411.938L254.75,414.438L263.625,422.376L271.375,431.626L264.813,432.626L261.375,437.188ZM226.5,420.813L224.438,419.501L223.188,419.876L221.313,418.251L218.813,417.251L215.813,416.251L218.313,421.188L216.438,421.251L217.875,422.626L220.063,423.438L221.875,424.876L222.25,426.813L223.188,430.063L223.125,432.938L221.875,433.188L222.938,436.313L224.125,437.001L225,433.876L224.375,429.501L223.875,426.563L223.625,424.188L225,423.688L226.125,423.126L225.25,422.626L224,421.626L224.313,420.563L226.5,420.813Z" style="fill:rgb(185,0,0);fill-rule:nonzero;stroke:black;stroke-width:0.4px;"/>
            <g id="AC" transform="matrix(1,0,0,1,-28.0005,39.8125)">
                <path d="M348.813,365.75L351.563,362.125L353.125,362.188L353.313,360.188L355.25,360.5L358.313,360.25L358.688,359L360.25,358.938L360.563,355.938L362,354.063L364.625,353.5L365.813,351.125L367.063,347.875L368.375,343.313L368.875,339.375L370.813,336.625L373.125,333.438L376.625,330.5L378.625,326.625L378.5,325.188L377.063,325.438L376.125,322.125L374.5,320.438L372.438,320.125L371.25,318.063L372.063,316.938L371.938,313.5L368.688,313.25L367.563,311L369.563,311.375L371.75,308.375L371,306.25L373.063,305.375L375.125,300.625L371.688,298.813L371.188,297.25L361.813,296.25L346.375,289.938L342.938,297.563L342.063,298.563L339,300.438L337.563,298.938L336.063,298L336,297.063L336.563,296.125L333.063,293.75L332.25,293.938L332.188,292.938L330.5,292.313L328.875,291.5L328.313,290.5L327.313,290.063L327,289.063L326.188,288.688L324.125,288.688L322.938,287.375L321.375,286.5L319.125,286L318,285.125L317.063,283.313L315.25,282.813L310.438,281.313L308.188,280.438L293.063,265.125L289.75,265.063L277.188,255.125L271.313,252.875L271.563,255.438L264.188,261.063L263.188,261.188L255.813,261.563L257.313,274.563L255.625,279.5L254.688,289.375L254.563,295.25L252.313,297.438L251.438,302.688L256.375,307.125L257.313,307.5L258.063,308.625L259.313,310.063L259.188,311.625L260.563,313.313L262,313.438L263.375,315.438L263.625,317.813L266.875,319.375L268.563,322.125L267.375,322.938L268.625,323.75L269.063,324.938L270.125,324.563L270.188,325.625L272.25,327.438L272.75,330.5L273.938,330.563L273.75,327.438L275.063,326.688L275.875,329.188L276.063,331.688L280.813,334.938L280.938,337.938L284,337.563L293.375,348.063L295.563,350.438L303.063,351.813L311.188,353.125L323.125,348L324.813,349.563L324.063,351.313L325.313,354.375L327.938,354.688L330.125,355.125L331.063,356.313L332.875,356L334.063,357.313L338.313,363.688L338.375,365.375L340.375,368.813L342.375,369.313L344,368.563L342.75,366L343.563,364.813L345.75,366.75L347.5,369.938L349,368.813L348.25,366.688L348.813,365.75Z" style="fill:rgb(185,0,0);stroke:black;stroke-width:0.4px;"/>
            </g>
            <path id="BD" d="M289.063,323.126L287.25,322.626L282.438,321.126L280.188,320.251L265.063,304.938L261.75,304.876L249.188,294.938L243.313,292.688L242.063,287.376L246.125,282.751L252,271.251L253.688,269.188L258,265.438L258.75,259.313L258.125,256.75L253.75,249L255.063,245.5L258.438,244.813L260.188,241.5L262.875,229.625L263.75,228.813L270.25,223.938L271.75,221.125L277.313,224L281.375,227.063L281.75,225.688L284.875,217.75L283.375,209.063L283.5,203.688L287.75,201.625L290.875,204.375L296.563,203.5L310.938,208.375L315.5,202.625L311,200.5L312.813,198.688L314.813,195.375L316.063,190.063L315.438,185.625L312.063,181L319,179.688L322.125,180.25L323.438,181.813L324.313,182.188L324,182.938L323.313,183.938L324.563,185.313L325.75,185.063L329.313,188.188L330.375,190.25L331.25,189.75L332.188,190.188L332.563,192.75L333.813,193.375L335.5,193.875L337.188,195.188L337.125,196.5L339.125,196.438L341.75,197.938L341.875,199.188L342.25,200.188L343.75,200.625L345.375,200.625L346.625,200.313L347.25,201.5L347.938,200.75L350.875,202.063L351.375,201.625L352.063,202.438L353.688,203.438L354.063,202.75L354.875,203.313L354.938,204.375L356.625,205.188L357.125,205.25L358.813,206L359.063,207.438L360.438,208.563L360.563,210L360.5,211.625L361.188,212.75L362.625,211.938L363.688,213.063L364.938,216.125L366.063,216.125L366.375,217.188L367.313,217.25L367.813,218.75L369.125,218.938L369.563,221.25L367.813,222.188L367.438,224.938L367.938,226.5L368.063,230.75L369.5,232.938L369.188,235.625L368.438,235.563L369,236.688L368,238.813L369.625,240.063L370.063,239.375L372.5,240.375L373,239.688L374.125,240.75L373.75,242.188L373.875,243.938L374.688,244.188L374.125,246.375L372.188,247.125L371.875,248.938L372.438,250L372.125,251.313L374.125,254L374.438,256.063L376.063,257.875L376.938,258.063L377.25,259.25L378.25,259.75L378.5,261.375L380.25,263.438L380.938,264.876L380.813,266.438L379.813,266.126L379.688,267.313L380.125,270.563L379.875,272.001L380.188,274.813L379.25,276.063L379.375,277.376L378.125,277.876L378.125,279.188L377,280.001L377,281.063L378.063,282.563L377.438,286.188L379.688,291.188L382,291.876L383.313,291.938L383.25,293.313L383.813,293.938L383.813,295.001L385.375,297.376L386.063,299.813L388.688,305.938L383.563,307.001L382,305.876L380.813,305.813L380.625,306.876L379.5,307.376L377.563,306.563L376.813,308.438L374.25,307.626L373.125,307.188L372.438,308.376L371.75,311.626L369.938,310.126L366.75,308.938L365.563,306.001L364.063,305.126L363.563,305.751L364.313,309.188L366.063,311.063L366.188,312.438L364.938,311.938L363.25,310.001L361.375,310.126L361.313,308.688L359.813,306.626L358.188,307.501L357.813,310.188L358.063,313.126L358.5,315.438L359,317.501L360.063,319.251L359.25,319.688L357.125,319.063L356.188,319.563L356.25,321.251L354.375,321.313L351.563,321.563L353.875,323.876L352.813,325.876L350.938,326.688L348.125,326.563L345.625,327.563L344.938,328.751L348.938,331.313L348.688,332.501L347.25,333.688L348.188,337.563L347.125,340.438L343.688,338.626L343.188,337.063L333.813,336.063L318.375,329.751L314.938,337.376L314.063,338.376L311,340.251L309.563,338.751L308.063,337.813L308,336.876L308.563,335.938L305.063,333.563L304.25,333.751L304.188,332.751L302.5,332.126L300.875,331.313L300.313,330.313L299.313,329.876L299,328.876L298.188,328.501L296.125,328.501L294.938,327.188L293.375,326.313L291.125,325.813L290,324.938L289.063,323.126ZM292.75,318.688L291.813,317.626L292.125,315.876L290.813,315.063L288.688,315.126L284.25,309.751L285,307.501L284.188,304.938L286.625,304.438L287.188,303.501L286.188,302.313L284.688,303.063L283.125,301.501L282.125,299.126L279.5,297.751L277.625,295.688L275.563,293.688L273.75,291.501L269.938,289.626L269.5,290.751L273.75,293.313L276,296.251L276.25,298.126L278.813,299.313L280.938,301.626L282.875,303.501L281.438,304.063L279.5,305.126L281.313,307.688L281.5,309.126L280.875,310.626L281.25,313.188L282.688,313.126L283.5,310.751L286.125,314.563L287.875,319.688L289.438,319.251L290.5,319.876L294.375,321.126L294.5,320.063L292.75,318.688Z" style="fill:rgb(220,1,0);fill-rule:nonzero;stroke:black;stroke-width:0.4px;"/>
        </g>
        <g id="percents">
            <g transform="matrix(0.648569,0,0,0.648569,189.444,195.566)">
                <text x="177.518px" y="116.308px" style="font-family:'Verdana', sans-serif;font-size:22.767px;">77%</text>
            </g>
            <g transform="matrix(0.648569,0,0,0.648569,124.831,411.857)">
                <text x="177.518px" y="116.308px" style="font-family:'Verdana', sans-serif;font-size:22.767px;">77%</text>
            </g>
            <g transform="matrix(0.648569,0,0,0.648569,85.4442,430.243)">
                <text x="177.518px" y="116.308px" style="font-family:'Verdana', sans-serif;font-size:22.767px;">77%</text>
            </g>
            <g transform="matrix(0.648569,0,0,0.648569,64.5472,488.243)">
                <text x="177.518px" y="116.308px" style="font-family:'Verdana', sans-serif;font-size:22.767px;">76%</text>
            </g>
            <g transform="matrix(0.648569,0,0,0.648569,51.7132,557.924)">
                <text x="177.518px" y="116.308px" style="font-family:'Verdana', sans-serif;font-size:22.767px;">66%</text>
            </g>
            <g transform="matrix(0.648569,0,0,0.648569,66.4418,643.379)">
                <text x="177.518px" y="116.308px" style="font-family:'Verdana', sans-serif;font-size:22.767px;">62%</text>
            </g>
            <g transform="matrix(0.648569,0,0,0.648569,201.9,589.307)">
                <text x="177.518px" y="116.308px" style="font-family:'Verdana', sans-serif;font-size:22.767px;">85%</text>
            </g>
            <g transform="matrix(0.648569,0,0,0.648569,131.944,607.566)">
                <text x="177.518px" y="116.308px" style="font-family:'Verdana', sans-serif;font-size:22.767px;">77%</text>
            </g>
            <g transform="matrix(0.648569,0,0,0.648569,107.194,635.524)">
                <text x="177.518px" y="116.308px" style="font-family:'Verdana', sans-serif;font-size:22.767px;">76%</text>
            </g>
            <g transform="matrix(0.648569,0,0,0.648569,86.9002,615.824)">
                <text x="177.518px" y="116.308px" style="font-family:'Verdana', sans-serif;font-size:22.767px;">68%</text>
            </g>
            <g transform="matrix(0.648569,0,0,0.648569,86.9002,583.571)">
                <text x="177.518px" y="116.308px" style="font-family:'Verdana', sans-serif;font-size:22.767px;">70%</text>
            </g>
            <g transform="matrix(0.648569,0,0,0.648569,99.4632,511.611)">
                <text x="177.518px" y="116.308px" style="font-family:'Verdana', sans-serif;font-size:22.767px;">70%</text>
            </g>
            <g transform="matrix(0.648569,0,0,0.648569,117.204,547.602)">
                <text x="177.518px" y="116.308px" style="font-family:'Verdana', sans-serif;font-size:22.767px;">72%</text>
            </g>
            <g transform="matrix(0.648569,0,0,0.648569,43.9632,611.774)">
                <text x="177.518px" y="116.308px" style="font-family:'Verdana', sans-serif;font-size:22.767px;">74%</text>
            </g>
            <g transform="matrix(0.648569,0,0,0.648569,157.312,474.044)">
                <text x="177.518px" y="116.308px" style="font-family:'Verdana', sans-serif;font-size:22.767px;">68%</text>
            </g>
            <g transform="matrix(0.648569,0,0,0.648569,125.942,489.898)">
                <text x="177.518px" y="116.308px" style="font-family:'Verdana', sans-serif;font-size:22.767px;">63%</text>
            </g>
            <g transform="matrix(0.648569,0,0,0.648569,173.434,501.059)">
                <text x="177.518px" y="116.308px" style="font-family:'Verdana', sans-serif;font-size:22.767px;">55%</text>
            </g>
            <g transform="matrix(0.648569,0,0,0.648569,140.136,518.004)">
                <text x="177.518px" y="116.308px" style="font-family:'Verdana', sans-serif;font-size:22.767px;">67%</text>
            </g>
            <g transform="matrix(0.648569,0,0,0.648569,156.131,286.723)">
                <text x="177.518px" y="116.308px" style="font-family:'Verdana', sans-serif;font-size:22.767px;">81%</text>
            </g>
            <g transform="matrix(0.648569,0,0,0.648569,151.487,345.297)">
                <text x="177.518px" y="116.308px" style="font-family:'Verdana', sans-serif;font-size:22.767px;">81%</text>
            </g>
            <g transform="matrix(0.648569,0,0,0.648569,92.35,334.071)">
                <text x="177.518px" y="116.308px" style="font-family:'Verdana', sans-serif;font-size:22.767px;">82%</text>
            </g>
        </g>
    </g>
    <g id="legend" transform="matrix(1,0,0,1,-5.51906,-208.378)">
        <g id="colors" transform="matrix(1,0,0,1,0,-26.7331)">
            <g transform="matrix(0.821447,0,0,0.790145,1.60698,70.9053)">
                <rect x="9" y="262.123" width="20.12" height="20.12" style="fill:rgb(149,0,0);"/>
            </g>
            <g transform="matrix(0.821447,0,0,0.790145,1.60698,86.8405)">
                <rect x="9" y="262.123" width="20.12" height="20.12" style="fill:rgb(185,0,0);"/>
            </g>
            <g transform="matrix(0.821447,0,0,0.790145,1.60698,102.803)">
                <rect x="9" y="262.123" width="20.12" height="20.12" style="fill:rgb(220,1,0);"/>
            </g>
            <g transform="matrix(0.821447,0,0,0.790145,1.60698,118.765)">
                <rect x="9" y="262.123" width="20.12" height="20.12" style="fill:rgb(255,1,0);"/>
            </g>
            <g transform="matrix(0.821447,0,0,0.790145,1.60698,134.727)">
                <rect x="9" y="262.123" width="20.12" height="20.12" style="fill:rgb(255,51,51);"/>
            </g>
            <g transform="matrix(0.821447,0,0,0.790145,1.60698,150.689)">
                <rect x="9" y="262.123" width="20.12" height="20.12" style="fill:rgb(255,102,102);"/>
            </g>
            <g transform="matrix(0.821447,0,0,0.790145,1.60698,166.651)">
                <rect x="9" y="262.123" width="20.12" height="20.12" style="fill:rgb(255,153,153);"/>
            </g>
        </g>
        <g id="text">
            <g transform="matrix(0.815309,0,0,0.815309,28.7538,358.18)">
                <text x="0px" y="0px" style="font-family:'LucidaGrande', 'Lucida Grande', sans-serif;font-weight:500;font-size:12.502px;">55-59%</text>
            </g>
            <g transform="matrix(0.815309,0,0,0.815309,28.7538,342.218)">
                <text x="0px" y="0px" style="font-family:'LucidaGrande', 'Lucida Grande', sans-serif;font-weight:500;font-size:12.502px;">60-64%</text>
            </g>
            <g transform="matrix(0.815309,0,0,0.815309,28.7538,326.256)">
                <text x="0px" y="0px" style="font-family:'LucidaGrande', 'Lucida Grande', sans-serif;font-weight:500;font-size:12.502px;">65-69%</text>
            </g>
            <g transform="matrix(0.815309,0,0,0.815309,28.7538,310.294)">
                <text x="0px" y="0px" style="font-family:'LucidaGrande', 'Lucida Grande', sans-serif;font-weight:500;font-size:12.502px;">70-74%</text>
            </g>
            <g transform="matrix(0.815309,0,0,0.815309,28.7538,294.331)">
                <text x="0px" y="0px" style="font-family:'LucidaGrande', 'Lucida Grande', sans-serif;font-weight:500;font-size:12.502px;">75-79%</text>
            </g>
            <g transform="matrix(0.815309,0,0,0.815309,28.7538,278.369)">
                <text x="0px" y="0px" style="font-family:'LucidaGrande', 'Lucida Grande', sans-serif;font-weight:500;font-size:12.502px;">80-84%</text>
            </g>
            <g transform="matrix(0.815309,0,0,0.815309,28.7538,262.434)">
                <text x="0px" y="0px" style="font-family:'LucidaGrande', 'Lucida Grande', sans-serif;font-weight:500;font-size:12.502px;">85-89%</text>
            </g>
            <g transform="matrix(0.815309,0,0,0.815309,7.89483,222.51)">
                <g>
                    <text x="0px" y="0px" style="font-family:'LucidaGrande', 'Lucida Grande', sans-serif;font-weight:500;font-size:12.502px;">Swedes of two Swedish</text>
                    <text x="0px" y="12.502px" style="font-family:'LucidaGrande', 'Lucida Grande', sans-serif;font-weight:500;font-size:12.502px;">parents in Sweden in</text>
                    <text x="0px" y="25.004px" style="font-family:'LucidaGrande', 'Lucida Grande', sans-serif;font-weight:500;font-size:12.502px;">2020</text>
                </g>
            </g>
        </g>
    </g>
</svg>
